<?xml version="1.0" standalone="no"?>
<!DOCTYPE svg PUBLIC "-//W3C//DTD SVG 20010904//EN"
 "http://www.w3.org/TR/2001/REC-SVG-20010904/DTD/svg10.dtd">
<svg version="1.0" xmlns="http://www.w3.org/2000/svg"
 width="960.000000pt" height="400.000000pt" viewBox="0 0 960.000000 400.000000"
 preserveAspectRatio="xMidYMid meet">

<g transform="translate(0.000000,400.000000) scale(0.100000,-0.100000)"
fill="#000000" stroke="none">
<path d="M0 2000 l0 -2000 657 0 c361 0 654 2 652 4 -2 2 -132 76 -289 166
-157 90 -297 171 -313 182 -32 23 -35 57 -7 83 22 20 642 377 647 372 1 -2
-143 -88 -322 -191 -215 -125 -326 -195 -331 -208 -4 -13 0 -27 12 -38 11 -10
155 -97 322 -194 l303 -176 1205 0 c1202 0 1204 0 1204 20 l0 20 40 -20 c39
-20 51 -20 1452 -18 l1413 3 -163 94 c-104 59 -166 101 -172 115 -4 11 -7 22
-5 24 2 2 60 -31 284 -164 l123 -74 1444 0 1444 0 0 2000 0 2000 -1377 -2
-1378 -3 -10 -79 c-14 -108 -43 -112 -46 -6 -1 36 -3 34 -13 -13 -11 -47 -31
-25 -36 39 l-5 59 -92 3 -93 3 0 -28 c0 -31 -9 -47 -27 -51 -8 -1 -13 8 -13
21 0 32 -7 37 -41 27 -25 -7 -29 -6 -29 10 0 18 -12 19 -232 19 l-233 1 35
-22 c19 -11 54 -30 78 -40 l43 -19 66 36 c88 49 92 37 4 -15 l-70 -42 0 -131
c0 -128 0 -132 -21 -129 -23 4 -281 150 -292 167 -4 5 -8 52 -8 103 l0 92
-2107 0 c-1158 0 -2104 -2 -2102 -4 2 -2 162 -95 354 -205 193 -111 358 -212
367 -224 16 -20 17 -55 15 -407 l-2 -385 -25 1 c-14 1 -34 5 -44 9 -17 8 -19
5 -13 -33 3 -23 3 -42 1 -42 -2 0 -158 88 -347 196 l-342 195 3 43 c3 37 0 45
-22 59 -14 9 -30 34 -36 54 -10 32 -16 38 -42 40 -29 2 -30 1 -24 -30 3 -18
11 -72 18 -121 l12 -88 -37 -34 c-27 -25 -46 -34 -71 -34 -49 0 -58 17 -55
106 l4 76 -32 13 c-47 20 -56 44 -32 92 10 21 34 54 53 72 l33 32 24 -25 c32
-34 39 -33 39 10 0 26 3 33 13 27 6 -4 4 5 -6 20 -9 15 -13 27 -7 27 5 0 10 5
10 11 0 8 -4 9 -13 0 -8 -6 -17 -8 -20 -4 -4 3 -7 1 -7 -5 0 -6 8 -16 18 -21
15 -9 15 -10 -5 -11 -23 0 -28 14 -17 44 16 42 59 2 117 -109 15 -28 16 -5 17
313 l0 342 -750 0 -750 0 0 -2000z m3473 1877 c32 -10 56 -21 54 -23 -2 -2
-25 3 -51 12 -46 16 -49 16 -87 -5 l-39 -22 0 33 c0 26 6 36 28 49 25 14 27
14 32 -5 4 -13 24 -26 63 -39z m-158 -133 c-14 -54 -29 -101 -32 -104 -7 -6 0
24 29 133 11 43 22 76 25 74 2 -3 -8 -49 -22 -103z m485 36 c0 -27 -37 -47
-42 -22 -3 16 17 41 35 42 4 0 7 -9 7 -20z m2759 -16 c2 -2 2 -7 -1 -10 -4 -3
-19 2 -35 11 l-28 16 30 -6 c16 -4 32 -9 34 -11z m-2918 -30 c-35 -13 -66 -23
-68 -21 -5 6 98 46 117 46 8 0 -14 -11 -49 -25z m2249 -227 c432 -248 395
-228 455 -244 l50 -13 -50 6 c-27 3 -71 17 -98 31 l-50 25 5 -31 c2 -16 2 -29
-1 -27 -100 50 -654 377 -673 397 -20 21 -28 40 -28 65 0 36 0 36 18 16 9 -11
177 -112 372 -225z m585 217 c19 -16 19 -16 -5 -9 -31 9 -50 25 -29 25 7 0 23
-8 34 -16z m-2915 -18 c0 -2 -56 -25 -125 -51 -97 -37 -125 -52 -125 -66 0
-26 -38 -45 -46 -24 -10 25 4 33 148 91 128 52 148 59 148 50z m-350 -235 c96
-56 169 -101 162 -101 -8 0 -23 5 -34 11 -18 10 -20 9 -15 -5 5 -13 -2 -11
-36 8 -23 14 -107 63 -187 109 -112 64 -146 88 -148 106 l-4 23 44 -25 c24
-14 122 -71 218 -126z m1718 -88 c-21 -2 -55 -2 -75 0 -21 2 -4 4 37 4 41 0
58 -2 38 -4z m1012 0 c-1 -5 -96 -62 -212 -129 -117 -66 -213 -125 -215 -130
-1 -5 235 -146 525 -313 1119 -646 1218 -704 1245 -729 30 -29 52 -92 42 -124
-7 -19 -9 -18 -44 15 -20 19 -83 62 -141 95 -294 166 -1636 945 -1645 953 -7
7 -5 8 6 4 13 -5 18 1 21 29 5 41 -16 56 -33 24 -17 -32 -24 -175 -9 -193 11
-13 8 -15 -15 -15 -22 0 -25 3 -16 14 7 8 11 48 10 103 -1 50 3 99 9 110 9 17
4 23 -44 52 -72 43 -63 52 10 11 47 -27 59 -30 72 -19 20 16 416 247 427 248
4 1 7 -2 7 -6z m-1143 -9 c-3 -3 -12 -4 -19 -1 -8 3 -5 6 6 6 11 1 17 -2 13
-5z m260 -10 c51 -17 288 -148 299 -166 8 -12 -2 -7 -109 56 -113 67 -171 95
-230 111 -28 7 -42 14 -30 14 12 1 44 -6 70 -15z m-1640 0 c-3 -3 -12 -4 -19
-1 -8 3 -5 6 6 6 11 1 17 -2 13 -5z m3020 -100 c-3 -3 -12 -4 -19 -1 -8 3 -5
6 6 6 11 1 17 -2 13 -5z m-1407 -162 c0 -12 -75 -45 -91 -40 -7 2 2 13 22 25
35 22 69 29 69 15z m-3500 -62 c0 -5 -7 -10 -15 -10 -8 0 -15 5 -15 10 0 6 7
10 15 10 8 0 15 -4 15 -10z m90 -50 c0 -5 -7 -10 -16 -10 -8 0 -12 5 -9 10 3
6 10 10 16 10 5 0 9 -4 9 -10z m-577 -17 c-21 -14 -23 -24 -23 -94 0 -44 -4
-79 -8 -79 -5 0 -29 14 -53 32 -24 17 -38 24 -30 14 21 -26 150 -98 161 -91 6
4 9 2 8 -4 -3 -11 559 -341 613 -360 40 -14 99 -14 136 -1 26 9 27 9 9 -5 -34
-26 -131 -20 -202 14 l-62 29 2 -28 c2 -23 -1 -27 -13 -20 -173 94 -656 381
-663 394 -5 9 -10 39 -10 67 -2 58 5 67 88 115 62 35 84 44 47 17z m297 -24
c0 -16 -4 -28 -9 -25 -8 5 -3 56 5 56 2 0 4 -14 4 -31z m190 -9 c0 -5 -7 -10
-16 -10 -8 0 -12 5 -9 10 3 6 10 10 16 10 5 0 9 -4 9 -10z m175 0 c3 -5 -1
-10 -10 -10 -9 0 -13 5 -10 10 3 6 8 10 10 10 2 0 7 -4 10 -10z m-445 -55 c0
-8 -7 -15 -15 -15 -16 0 -20 12 -8 23 11 12 23 8 23 -8z m137 -7 c-3 -8 -6 -5
-6 6 -1 11 2 17 5 13 3 -3 4 -12 1 -19z m223 8 c0 -11 -19 -15 -25 -6 -3 5 1
10 9 10 9 0 16 -2 16 -4z m270 -56 c0 -5 -4 -10 -10 -10 -5 0 -10 5 -10 10 0
6 5 10 10 10 6 0 10 -4 10 -10z m3451 -62 c-23 -11 -74 -51 -114 -89 l-72 -69
40 6 c130 20 299 78 291 100 -5 12 -2 12 16 3 21 -11 21 -12 -13 -30 -53 -29
-212 -78 -275 -85 -62 -8 -67 -11 -135 -100 -25 -33 -73 -80 -107 -105 -34
-25 -59 -50 -57 -57 3 -7 1 -10 -4 -7 -5 3 -45 -7 -88 -21 -65 -23 -101 -28
-215 -32 l-137 -5 -40 -56 c-118 -169 -253 -241 -666 -358 -65 -19 -71 -23
-92 -64 -24 -46 -101 -121 -115 -113 -5 3 14 26 41 50 46 42 70 79 58 91 -3 2
-45 -14 -92 -36 -74 -35 -86 -43 -75 -56 10 -12 7 -12 -19 1 l-32 16 68 32
c37 18 89 41 115 51 26 9 50 25 52 34 3 9 4 72 3 141 -2 146 10 182 82 237 74
57 131 68 341 66 102 -1 224 -6 273 -10 l87 -9 27 39 c65 93 202 187 323 220
60 16 146 32 256 46 69 9 72 11 123 64 29 31 77 72 107 93 29 20 51 41 47 46
-3 6 5 5 17 -2 21 -11 20 -12 -19 -32z m-4281 11 c17 -13 18 -17 5 -10 -33 17
-51 31 -40 31 6 0 21 -10 35 -21z m740 1 c0 -5 -4 -10 -10 -10 -5 0 -10 5 -10
10 0 6 5 10 10 10 6 0 10 -4 10 -10z m180 0 c0 -5 -4 -10 -10 -10 -5 0 -10 5
-10 10 0 6 5 10 10 10 6 0 10 -4 10 -10z m-543 -6 c-3 -3 -12 -4 -19 -1 -8 3
-5 6 6 6 11 1 17 -2 13 -5z m2943 -51 c-29 -17 -45 -22 -52 -15 -7 7 2 17 28
30 55 28 75 15 24 -15z m-2850 7 c0 -5 -7 -10 -16 -10 -8 0 -12 5 -9 10 3 6
10 10 16 10 5 0 9 -4 9 -10z m180 0 c0 -5 -7 -10 -16 -10 -8 0 -12 5 -9 10 3
6 10 10 16 10 5 0 9 -4 9 -10z m180 0 c0 -5 -4 -10 -10 -10 -5 0 -10 5 -10 10
0 6 5 10 10 10 6 0 10 -4 10 -10z m180 0 c0 -5 -4 -10 -10 -10 -5 0 -10 5 -10
10 0 6 5 10 10 10 6 0 10 -4 10 -10z m-450 -54 c0 -11 -19 -15 -25 -6 -3 5 1
10 9 10 9 0 16 -2 16 -4z m180 0 c0 -3 -4 -8 -10 -11 -5 -3 -10 -1 -10 4 0 6
5 11 10 11 6 0 10 -2 10 -4z m5894 -63 c-25 -18 -34 -16 -34 6 0 11 10 27 23
36 21 15 22 14 25 -7 2 -13 -4 -27 -14 -35z m-2001 20 c11 -10 -51 -43 -69
-36 -13 5 -9 10 17 24 38 21 43 22 52 12z m-3983 -13 c0 -5 -4 -10 -9 -10 -6
0 -13 5 -16 10 -3 6 1 10 9 10 9 0 16 -4 16 -10z m180 0 c0 -5 -4 -10 -10 -10
-5 0 -10 5 -10 10 0 6 5 10 10 10 6 0 10 -4 10 -10z m-780 -30 c0 -5 -4 -10
-10 -10 -5 0 -10 5 -10 10 0 6 5 10 10 10 6 0 10 -4 10 -10z m690 -20 c0 -5
-4 -10 -10 -10 -5 0 -10 5 -10 10 0 6 5 10 10 10 6 0 10 -4 10 -10z m2123
-110 c-34 -29 -208 -119 -215 -112 -12 12 191 132 210 125 7 -3 10 -9 5 -13z
m-3013 -5 c0 -2 -10 -9 -22 -15 -22 -11 -22 -10 -4 4 21 17 26 19 26 11z
m4473 -2 c4 -3 -7 -15 -24 -25 -21 -13 -35 -16 -41 -10 -7 7 0 16 18 26 33 17
38 18 47 9z m382 -2 c-3 -6 -46 -33 -95 -61 -125 -72 -152 -60 -30 13 86 51
140 72 125 48z m-4905 -26 c0 -2 -13 -11 -30 -20 -38 -19 -40 -11 -2 9 31 17
32 18 32 11z m-90 -50 c0 -2 -21 -16 -47 -31 -27 -15 -54 -34 -62 -43 -11 -13
-12 -13 -9 -1 3 8 29 29 59 47 59 35 59 35 59 28z m3100 -2 c0 -15 -97 -61
-109 -53 -9 5 1 15 31 33 43 25 78 34 78 20z m2307 -17 c107 -29 183 -99 183
-169 0 -80 -59 -136 -179 -171 -79 -23 -223 -21 -305 4 -36 12 -66 23 -66 25
0 2 12 11 27 18 24 13 33 12 82 -4 112 -39 250 -17 321 50 67 64 51 130 -44
178 -67 35 -208 44 -283 19 -50 -17 -89 -13 -76 7 4 7 0 8 -13 3 -14 -5 -16
-4 -8 4 43 43 254 64 361 36z m-5602 -76 c3 -5 -3 -10 -15 -10 -12 0 -18 5
-15 10 3 6 10 10 15 10 5 0 12 -4 15 -10z m1082 -6 c-3 -3 -12 -4 -19 -1 -8 3
-5 6 6 6 11 1 17 -2 13 -5z m3423 -2 c0 -11 -46 -32 -68 -32 -13 0 -12 5 8 20
26 20 60 27 60 12z m2432 -50 c-2 -7 -17 -19 -33 -28 l-29 -15 0 35 c0 28 6
38 28 50 25 13 27 13 33 -7 3 -12 4 -28 1 -35z m-6644 -97 c83 -48 152 -89
152 -92 0 -3 -19 6 -42 20 -24 13 -107 61 -184 106 -78 45 -145 88 -148 96 -3
9 10 3 32 -13 20 -16 106 -69 190 -117z m5232 90 c0 -28 -5 -37 -30 -50 l-30
-16 0 33 c0 29 21 54 58 67 1 1 2 -15 2 -34z m1870 -83 c0 -21 -18 -42 -37
-42 -19 0 -16 31 5 46 23 18 32 17 32 -4z m-4666 -20 c6 -10 -185 -122 -210
-122 -27 0 -8 15 98 76 98 56 104 59 112 46z m1447 -32 c-13 -11 -33 -20 -45
-20 -21 1 -21 1 3 20 13 11 33 20 45 20 21 -1 21 -1 -3 -20z m-3541 -35 c0 -2
-13 -11 -30 -20 -38 -19 -40 -11 -2 9 31 17 32 18 32 11z m3840 -10 c0 -6
-197 -115 -208 -115 -28 0 -6 18 85 71 81 47 123 62 123 44z m1559 -6 c-8 -4
-111 -64 -229 -132 -118 -69 -220 -122 -228 -120 -7 3 -11 7 -9 10 24 23 453
260 464 256 13 -5 13 -7 2 -14z m-3364 -18 c-3 -5 -25 -20 -49 -34 -60 -33
-83 -18 -25 17 43 25 86 35 74 17z m3418 -11 c-4 -4 -107 -65 -227 -134 -132
-77 -223 -123 -228 -118 -11 11 431 270 450 264 7 -3 10 -8 5 -12z m-5548 -40
c-3 -5 -10 -10 -16 -10 -5 0 -9 5 -9 10 0 6 7 10 16 10 8 0 12 -4 9 -10z
m4350 -25 c122 -35 203 -127 174 -198 -18 -42 -67 -97 -88 -97 -9 1 -26 6 -38
13 l-23 12 30 29 c62 58 30 142 -72 186 -66 29 -199 32 -267 7 -29 -12 -48
-14 -60 -7 -9 5 -11 10 -4 10 7 0 10 7 7 14 -6 15 58 39 131 49 46 7 154 -2
210 -18z m-1024 -37 c-19 -12 -38 -17 -49 -13 -14 5 -11 10 18 25 46 24 72 14
31 -12z m2074 -37 c7 -13 -234 -151 -252 -144 -9 4 25 28 89 65 57 33 112 66
123 74 24 16 32 17 40 5z m-4987 -93 l-3 -62 -59 -33 -58 -33 -42 22 c-70 38
-76 46 -76 105 0 29 5 53 10 53 6 0 10 -26 10 -57 l0 -58 50 -28 50 -28 0 58
0 58 53 32 c28 17 56 32 60 32 4 1 7 -27 5 -61z m3842 3 c0 -19 -8 -34 -25
-45 -33 -22 -35 -21 -35 13 0 20 8 35 22 45 32 22 38 20 38 -13z m1915 -13
c22 10 25 9 25 -8 0 -10 8 -24 18 -30 14 -9 14 -10 -6 -5 -13 4 -29 2 -36 -4
-17 -14 -56 14 -56 41 0 17 2 18 15 8 12 -10 21 -10 40 -2z m-3132 -15 c11
-10 -51 -43 -68 -36 -13 4 -10 9 12 24 30 19 46 23 56 12z m-3028 -63 c-6 -9
261 -160 282 -160 17 0 53 18 176 89 31 18 57 30 57 28 0 -9 -214 -129 -230
-130 -8 0 -26 2 -40 6 l-25 6 3 -339 c1 -187 -1 -340 -4 -340 -12 0 -239 132
-246 144 -5 6 -8 167 -7 358 0 333 1 347 19 345 10 -1 17 -4 15 -7z m590 0
c-3 -6 -21 -17 -38 -26 -36 -19 -31 -9 10 17 34 21 36 22 28 9z m-1135 -30 c0
-5 -9 -10 -20 -10 -11 0 -20 5 -20 10 0 6 9 10 20 10 11 0 20 -4 20 -10z
m5335 -19 c-6 -5 -109 -66 -229 -135 -133 -78 -223 -123 -228 -118 -11 11 417
262 447 262 11 0 15 -3 10 -9z m-1604 -16 c-1 -16 -183 -116 -199 -110 -11 4
18 26 84 64 97 58 116 66 115 46z m1659 -12 c0 -15 -451 -266 -460 -257 -5 5
80 61 208 136 199 115 252 141 252 121z m-2127 -40 c11 -10 -51 -43 -68 -36
-13 4 -10 9 12 24 30 19 46 23 56 12z m3192 -23 c-17 -19 -17 -22 -3 -37 9 -8
63 -42 119 -74 l103 -58 31 18 c62 37 190 104 180 94 -5 -6 -51 -35 -102 -65
l-92 -55 41 -23 c23 -13 38 -18 34 -11 -4 6 -1 11 9 11 10 0 15 -6 12 -13 -3
-7 32 6 77 30 93 49 126 57 51 13 -85 -50 -106 -74 -30 -34 87 45 123 43 214
-11 54 -33 66 -37 82 -26 11 6 84 48 162 92 78 45 154 90 170 100 15 11 27 16
27 12 0 -5 -81 -55 -180 -113 -99 -58 -180 -107 -180 -110 1 -7 217 -130 229
-130 20 0 121 66 117 76 -3 7 3 10 13 7 9 -2 57 19 105 47 69 39 91 48 102 39
17 -14 21 -364 4 -374 -7 -5 -10 53 -10 180 1 103 0 189 -3 191 -2 3 -42 -17
-88 -44 -46 -27 -147 -86 -224 -130 -77 -45 -145 -92 -152 -104 -8 -15 -12
-81 -12 -197 -1 -96 -3 -177 -6 -179 -3 -3 -5 46 -6 109 0 70 -3 106 -9 94 -9
-22 -70 -62 -70 -46 0 5 9 12 19 16 11 3 25 13 33 22 12 15 11 15 -17 0 -48
-25 -73 -46 -55 -47 27 -1 -112 -82 -150 -87 -43 -6 -67 6 -360 175 l-205 119
-2 129 -3 129 88 42 c48 22 90 37 93 32 3 -5 13 -3 22 4 16 11 5 20 -90 77
-111 67 -132 92 -97 117 26 19 30 16 9 -7z m617 -2 c18 18 38 14 38 -8 0 -28
-34 -44 -62 -29 -30 16 -29 14 -22 33 5 13 9 14 21 5 10 -9 17 -9 25 -1z
m-2950 -12 c82 -18 122 -38 170 -84 59 -56 63 -121 11 -182 -44 -53 -173 -100
-275 -100 -50 0 -56 2 -51 19 3 14 17 20 56 25 29 3 70 11 92 17 48 13 125 86
125 118 0 115 -210 186 -377 127 -38 -13 -44 -13 -61 2 -10 9 -12 13 -5 8 10
-6 12 -5 7 7 -4 12 6 19 48 31 103 29 164 32 260 12z m1128 -70 c0 -12 -253
-147 -261 -139 -11 11 207 141 239 142 12 1 22 -1 22 -3z m-1180 -105 c0 -20
-8 -35 -22 -45 -33 -23 -48 -20 -48 12 0 19 8 32 28 44 38 23 42 22 42 -11z
m-2453 -17 c-3 -3 -12 -4 -19 -1 -8 3 -5 6 6 6 11 1 17 -2 13 -5z m221 -6 c19
-19 14 -31 -12 -24 -32 8 -39 -5 -20 -32 16 -23 53 -29 71 -11 7 7 12 6 16 -5
4 -10 1 -13 -8 -10 -10 4 -18 -10 -29 -47 -9 -29 -28 -66 -43 -81 -18 -19 -23
-32 -17 -38 15 -15 72 39 89 85 l14 40 -6 -65 c-7 -80 -16 -94 -61 -86 -19 3
-42 0 -52 -7 -11 -6 -23 -8 -27 -4 -4 5 -1 12 7 17 8 6 11 10 5 10 -5 0 -5 4
1 8 20 12 21 60 2 74 -16 12 -16 18 -4 79 21 97 44 127 74 97z m-524 -100 c-6
-46 -10 -49 -86 -86 -5 -2 -8 16 -8 40 0 43 2 46 47 71 26 14 49 24 50 23 2
-2 0 -23 -3 -48z m4500 -148 c162 -93 297 -170 300 -170 3 0 6 28 6 62 l0 61
23 -20 c12 -11 193 -119 402 -239 l380 -219 66 0 c37 0 62 -3 55 -7 -27 -18
-112 -8 -171 20 l-60 29 5 -233 5 -232 -38 19 c-21 11 -75 42 -122 69 -74 44
-84 54 -87 81 -3 30 -16 39 -208 151 -113 65 -215 121 -227 124 -21 6 -23 12
-24 88 0 44 0 113 1 151 l1 71 -302 174 c-167 96 -310 175 -319 175 -9 0 -17
-13 -21 -35 l-6 -35 -2 36 c-1 40 4 49 31 49 10 0 151 -76 312 -170z m-1220
132 c6 -11 -427 -262 -451 -262 -12 0 -14 3 -6 11 13 13 435 258 445 259 4 0
9 -4 12 -8z m-3544 -122 c139 -80 164 -89 201 -70 10 6 19 8 19 6 0 -3 -14
-13 -31 -21 -24 -13 -37 -14 -60 -6 l-29 10 0 -195 c0 -106 -3 -194 -7 -194
-5 0 -60 31 -123 68 l-115 67 -5 210 c-5 192 -2 271 8 223 2 -10 63 -52 142
-98z m3599 79 c-8 -4 -111 -64 -229 -132 -118 -69 -220 -122 -228 -120 -7 3
-11 8 -8 10 23 24 452 260 463 256 13 -5 13 -7 2 -14z m-3139 -4 c0 -2 -10 -9
-22 -15 -22 -11 -22 -10 -4 4 21 17 26 19 26 11z m6090 -32 c-28 -32 -32 -41
-27 -80 3 -34 1 -43 -11 -43 -11 0 -14 10 -10 49 5 52 39 111 65 111 10 0 5
-11 -17 -37z m-2897 6 c-4 -4 -107 -64 -227 -134 -135 -77 -223 -122 -228
-117 -6 6 46 41 134 92 79 46 179 104 223 130 44 26 86 45 93 42 7 -3 10 -8 5
-13z m-3243 -4 c0 -2 -10 -9 -22 -15 -22 -11 -22 -10 -4 4 21 17 26 19 26 11z
m240 -20 c25 -13 30 -22 30 -51 l0 -36 -32 19 c-25 14 -34 27 -36 51 -4 37 -2
38 38 17z m5720 0 c0 -2 -10 -9 -22 -15 -22 -11 -22 -10 -4 4 21 17 26 19 26
11z m-6035 -24 c-16 -14 -105 -63 -105 -58 0 5 101 66 110 67 2 0 0 -4 -5 -9z
m5965 -16 c0 -2 -10 -9 -22 -15 -22 -11 -22 -10 -4 4 21 17 26 19 26 11z
m-7352 -53 c2 -7 -6 -12 -17 -12 -21 0 -27 11 -14 24 9 9 26 2 31 -12z m4627
9 c-30 -28 -309 -179 -322 -174 -12 5 -13 7 -2 14 8 4 77 44 154 88 77 45 148
81 159 81 12 0 16 -3 11 -9z m2835 -16 c0 -2 -10 -9 -22 -15 -22 -11 -22 -10
-4 4 21 17 26 19 26 11z m-4412 -241 c2 -180 1 -203 -15 -222 -27 -32 -314
-193 -338 -190 -19 3 -20 11 -23 199 -2 175 -1 199 15 218 23 28 323 202 343
198 13 -2 15 -34 18 -203z m4342 201 c0 -2 -10 -9 -22 -15 -22 -11 -22 -10 -4
4 21 17 26 19 26 11z m208 -35 c-18 -21 -35 -34 -37 -29 -4 12 47 69 61 69 5
0 -6 -18 -24 -40z m-128 -18 c0 -12 -111 -75 -118 -67 -4 3 0 11 8 15 8 5 33
20 55 34 43 26 55 30 55 18z m-5632 -26 c24 -1 28 -23 16 -85 -8 -40 -24 -40
-24 -1 0 17 -4 30 -10 30 -5 0 -10 -9 -10 -20 0 -34 -17 -22 -24 18 -10 63 -8
75 12 66 9 -4 27 -8 40 -8z m5632 -15 c0 -13 -111 -74 -119 -65 -3 4 -1 8 4
11 6 2 30 17 55 33 48 31 60 35 60 21z m258 -44 c-53 -42 -438 -258 -455 -255
-9 2 -18 9 -19 16 -1 7 0 8 3 2 2 -5 9 -10 15 -10 19 0 468 262 468 273 0 6 3
7 8 3 4 -4 -5 -18 -20 -29z m-258 4 c0 -13 -109 -75 -117 -67 -8 8 -8 8 57 45
62 35 60 34 60 22z m245 -61 c-5 -9 -399 -240 -408 -240 -27 0 16 30 167 119
96 56 185 110 198 120 21 17 54 18 43 1z m-3697 -22 c14 -14 16 -78 2 -78 -5
0 -10 15 -10 34 0 19 -4 37 -8 40 -4 2 -140 -72 -302 -165 -161 -93 -296 -167
-298 -164 -8 7 -18 1 268 165 146 84 274 159 285 166 25 17 48 17 63 2z m3832
-31 c8 -3 3 -6 -12 -6 -16 -1 -28 1 -28 3 0 2 -3 13 -7 23 -6 17 -5 17 13 2
10 -9 26 -19 34 -22z m60 -40 c22 -50 29 -201 11 -235 -15 -29 -48 -37 -70
-18 -10 9 -24 16 -33 16 -12 0 -14 10 -10 52 4 43 2 50 -11 45 -8 -3 -87 -47
-174 -97 l-158 -91 -28 33 c-15 18 -40 50 -55 72 l-26 38 21 17 c28 23 338
201 349 201 5 0 18 -14 29 -30 23 -35 35 -37 59 -11 10 11 28 22 42 25 13 4
24 11 24 16 0 21 12 8 30 -33z m-7370 23 c0 -5 -7 -10 -15 -10 -8 0 -15 5 -15
10 0 6 7 10 15 10 8 0 15 -4 15 -10z m900 -80 c106 -61 130 -71 163 -68 33 3
36 2 21 -9 -21 -15 -44 -16 -76 -4 -23 9 -23 9 -20 -70 2 -44 0 -79 -5 -79 -4
0 -60 31 -123 68 l-115 68 -3 92 c-3 87 -2 92 15 84 10 -6 74 -42 143 -82z
m460 85 c0 -2 -10 -9 -22 -15 -22 -11 -22 -10 -4 4 21 17 26 19 26 11z m-120
-70 c0 -2 -13 -11 -30 -20 -38 -19 -40 -11 -2 9 31 17 32 18 32 11z m-70 -40
c0 -2 -10 -9 -22 -15 -22 -11 -22 -10 -4 4 21 17 26 19 26 11z m5703 -334 c10
-7 32 -17 50 -21 l32 -8 -32 -1 c-23 -1 -43 8 -67 30 l-35 30 2 -125 c1 -69 1
-126 0 -126 -1 0 -8 3 -17 6 -14 5 -16 28 -16 151 l0 144 -70 95 c-38 52 -70
99 -70 105 0 5 46 -52 103 -128 57 -76 111 -144 120 -152z m-4368 222 l5 -32
-184 -110 c-101 -61 -189 -111 -194 -111 -12 0 3 73 16 78 23 7 337 196 341
204 5 14 9 6 16 -29z m3090 -158 c83 -48 162 -95 177 -104 16 -9 28 -24 28
-35 0 -17 -2 -17 -22 -4 -13 8 -88 52 -168 97 -201 115 -220 128 -220 151 0
20 0 20 28 1 15 -10 95 -58 177 -106z m-2921 69 c4 -10 18 -14 41 -12 37 2 59
-16 71 -60 5 -18 11 -21 28 -16 19 6 20 5 5 -11 -13 -13 -14 -25 -8 -58 4 -23
8 -66 9 -95 0 -49 -2 -54 -32 -72 -70 -42 -169 -13 -154 46 21 83 21 77 -5 64
-13 -7 -82 -47 -154 -89 l-130 -76 -75 0 c-73 0 -77 1 -163 53 -48 29 -91 61
-97 71 -14 28 6 86 34 99 24 11 24 10 28 -48 3 -55 2 -58 -17 -48 l-20 9 20
-16 c11 -9 53 -35 94 -57 63 -35 84 -41 135 -42 59 -1 67 2 209 83 131 74 172
101 152 101 -3 0 -19 -7 -36 -15 -17 -9 -50 -15 -78 -14 -35 2 -58 -4 -83 -19
-20 -12 -45 -22 -56 -22 -28 0 -92 39 -92 55 0 14 239 155 262 155 7 0 27 -9
45 -20 32 -19 32 -19 47 2 13 18 13 23 0 35 -8 8 -14 21 -14 28 0 18 26 9 34
-11z m-3214 -2 c0 -14 -11 -21 -26 -15 -8 3 -11 9 -8 14 7 11 34 12 34 1z
m1080 -2 c0 -5 -7 -10 -15 -10 -8 0 -15 5 -15 10 0 6 7 10 15 10 8 0 15 -4 15
-10z m962 -25 c-2 -15 -16 -32 -33 -41 -29 -14 -29 -14 -29 13 0 20 8 33 28
44 34 20 41 17 34 -16z m-238 -105 c160 -92 168 -95 198 -80 22 11 22 11 3 -5
-36 -28 -92 -13 -218 60 -65 37 -122 75 -127 86 -6 10 -7 19 -3 19 5 0 71 -36
147 -80z m426 45 c0 -2 -10 -9 -22 -15 -22 -11 -22 -10 -4 4 21 17 26 19 26
11z m-1695 -235 c-3 -5 -10 -10 -16 -10 -5 0 -9 5 -9 10 0 6 7 10 16 10 8 0
12 -4 9 -10z m1085 6 c0 -11 -19 -15 -25 -6 -3 5 1 10 9 10 9 0 16 -2 16 -4z"/>
<path d="M4969 2570 c-120 -19 -226 -50 -268 -77 l-25 -16 37 -19 c52 -26 46
-32 -7 -6 l-44 21 -51 -37 c-28 -21 -68 -58 -88 -83 -44 -53 -37 -63 47 -63
131 1 306 40 296 66 -3 7 2 10 13 7 36 -9 166 106 226 200 21 33 28 33 -136 7z
m-169 -166 c0 -2 -9 0 -20 6 -11 6 -20 13 -20 16 0 2 9 0 20 -6 11 -6 20 -13
20 -16z"/>
<path d="M3935 2294 c-11 -3 -30 -7 -43 -10 -13 -2 -20 -9 -17 -14 3 -6 -1
-10 -9 -10 -29 0 -17 -15 39 -48 77 -47 69 -51 -11 -7 -66 37 -67 37 -95 21
-16 -10 -33 -15 -38 -12 -4 3 -16 -3 -26 -14 -33 -36 -44 -91 -45 -216 l0
-121 123 34 c229 62 385 122 372 143 -3 5 0 7 7 5 31 -12 168 102 229 191 26
38 28 44 12 45 -10 0 -29 2 -43 4 -43 7 -434 14 -455 9z m-170 -94 c3 -5 -1
-10 -10 -10 -9 0 -13 5 -10 10 3 6 8 10 10 10 2 0 7 -4 10 -10z m265 -66 c0
-2 -13 2 -30 11 -16 9 -30 18 -30 21 0 2 14 -2 30 -11 17 -9 30 -18 30 -21z
m50 -30 c0 -2 -9 0 -20 6 -11 6 -20 13 -20 16 0 2 9 0 20 -6 11 -6 20 -13 20
-16z"/>
<path d="M7234 1338 c-4 -7 -3 -8 4 -4 6 4 25 0 42 -9 16 -8 30 -13 30 -11 0
6 -55 36 -64 36 -3 0 -8 -5 -12 -12z"/>
<path d="M6790 755 c-48 -28 -75 -51 -75 -62 0 -20 25 -36 255 -172 88 -52
160 -100 160 -107 0 -8 -3 -14 -6 -14 -8 0 -350 196 -386 222 -16 11 -28 15
-28 9 0 -13 26 -29 255 -162 215 -123 219 -124 326 -59 71 43 74 47 77 87 4
50 16 41 -249 191 -126 72 -207 112 -225 112 -16 0 -62 -20 -104 -45z"/>
<path d="M3450 883 c-80 -46 -155 -94 -167 -106 -22 -20 -23 -26 -23 -214 0
-150 3 -193 13 -193 20 0 310 169 330 192 16 19 17 41 15 211 -2 116 -7 191
-13 193 -5 1 -75 -36 -155 -83z m61 -256 c-8 -8 -11 7 -11 49 0 79 14 93 18
18 2 -31 -2 -62 -7 -67z m-134 6 c-2 -16 -4 -5 -4 22 0 28 2 40 4 28 2 -13 2
-35 0 -50z"/>
<path d="M3546 288 l-119 -71 24 -18 c38 -30 63 -32 105 -10 l39 20 -37 1
c-38 0 -49 12 -25 27 6 4 37 6 68 5 44 -2 61 1 80 17 18 15 20 21 9 22 -8 1
-19 3 -25 4 -5 2 -18 3 -28 4 -10 0 -15 6 -12 11 4 6 31 10 62 8 37 -2 57 1
60 9 4 12 -46 43 -69 43 -7 -1 -67 -33 -132 -72z"/>
<path d="M1517 3993 c-13 -12 -7 -695 6 -733 10 -28 26 -42 86 -76 41 -23 82
-39 90 -36 9 3 12 1 7 -6 -8 -13 67 -55 79 -44 5 4 6 2 2 -4 -3 -5 20 -24 51
-42 31 -17 149 -85 261 -150 113 -66 211 -118 218 -115 10 4 13 81 13 379 0
373 0 373 -22 397 -31 34 -734 437 -762 437 -13 0 -26 -3 -29 -7z m234 -324
c23 -34 37 -59 31 -55 -6 3 -23 26 -39 51 -33 53 -52 61 -92 41 -42 -22 -52
-20 -16 4 51 34 70 27 116 -41z m216 -49 c18 -36 32 -69 32 -75 0 -5 -13 17
-28 50 -15 33 -36 67 -46 75 -16 13 -19 12 -39 -13 -62 -81 -73 -91 -79 -74
-4 11 -2 14 7 11 8 -3 26 15 45 46 44 71 65 67 108 -20z m-357 -31 c0 -6 -7
-8 -16 -5 -9 3 -18 6 -20 6 -2 0 -4 7 -4 15 0 13 4 14 20 5 11 -6 20 -16 20
-21z m94 -45 c9 -3 16 -13 16 -20 0 -12 -4 -12 -20 -4 -11 6 -20 15 -20 20 0
12 3 12 24 4z m394 -70 c28 -9 59 -25 68 -35 13 -15 7 -13 -32 6 -27 13 -64
29 -82 36 -18 6 -38 21 -44 33 -10 21 -10 21 13 -1 14 -12 48 -30 77 -39z
m-268 -14 c0 -14 -14 -12 -28 2 -19 19 -14 30 8 18 11 -6 20 -15 20 -20z
m-130 -63 c11 -17 17 -33 15 -36 -6 -5 -74 70 -75 82 0 17 42 -16 60 -46z
m230 13 c8 -5 12 -12 9 -15 -8 -8 -39 5 -39 16 0 11 11 11 30 -1z m271 -17
c13 -16 12 -17 -3 -4 -17 13 -22 21 -14 21 2 0 10 -8 17 -17z m-614 -35 c-3
-8 -6 -5 -6 6 -1 11 2 17 5 13 3 -3 4 -12 1 -19z m447 -4 c9 -3 16 -13 16 -20
0 -12 -4 -12 -20 -4 -11 6 -20 15 -20 20 0 12 3 12 24 4z m-359 -84 c8 0 21
10 30 23 l16 22 -3 -25 c-2 -20 -10 -26 -33 -28 -24 -2 -37 4 -60 29 l-30 33
33 -27 c19 -15 40 -27 47 -27z m252 4 c21 -28 27 -48 28 -86 0 -62 -17 -78
-64 -58 -31 13 -81 82 -81 111 0 8 9 -4 19 -26 20 -45 45 -70 78 -78 19 -4 23
0 29 28 6 36 -19 103 -43 112 -15 6 -18 33 -4 33 6 0 22 -16 38 -36z m233 -5
c0 -6 -7 -6 -20 1 -11 6 -20 15 -20 21 0 6 7 6 20 -1 11 -6 20 -15 20 -21z
m100 -49 c8 -5 12 -12 9 -15 -8 -8 -39 5 -39 16 0 11 11 11 30 -1z m-225 -20
c3 -5 2 -10 -4 -10 -5 0 -13 5 -16 10 -3 6 -2 10 4 10 5 0 13 -4 16 -10z m35
-20 c0 -5 -2 -10 -4 -10 -3 0 -8 5 -11 10 -3 6 -1 10 4 10 6 0 11 -4 11 -10z
m80 0 c0 -5 -4 -10 -10 -10 -5 0 -10 5 -10 10 0 6 5 10 10 10 6 0 10 -4 10
-10z m-115 -19 c3 -5 1 -12 -4 -15 -5 -3 -11 1 -15 9 -6 16 9 21 19 6z m75 -7
c0 -8 -4 -12 -10 -9 -5 3 -10 10 -10 16 0 5 5 9 10 9 6 0 10 -7 10 -16z m80 0
c0 -8 -4 -12 -10 -9 -5 3 -10 10 -10 16 0 5 5 9 10 9 6 0 10 -7 10 -16z m-120
-20 c0 -8 -5 -12 -10 -9 -6 4 -8 11 -5 16 9 14 15 11 15 -7z m80 0 c0 -8 -4
-12 -10 -9 -5 3 -10 10 -10 16 0 5 5 9 10 9 6 0 10 -7 10 -16z m-113 -30 c-9
-9 -28 6 -21 18 4 6 10 6 17 -1 6 -6 8 -13 4 -17z m153 5 c0 -5 -4 -9 -10 -9
-5 0 -10 7 -10 16 0 8 5 12 10 9 6 -3 10 -10 10 -16z m-80 1 c0 -5 -2 -10 -4
-10 -3 0 -8 5 -11 10 -3 6 -1 10 4 10 6 0 11 -4 11 -10z m-40 -20 c0 -5 -2
-10 -4 -10 -3 0 -8 5 -11 10 -3 6 -1 10 4 10 6 0 11 -4 11 -10z m80 0 c0 -5
-4 -10 -10 -10 -5 0 -10 5 -10 10 0 6 5 10 10 10 6 0 10 -4 10 -10z m-115 -20
c3 -5 2 -10 -4 -10 -5 0 -13 5 -16 10 -3 6 -2 10 4 10 5 0 13 -4 16 -10z m75
-6 c0 -8 -4 -12 -10 -9 -5 3 -10 10 -10 16 0 5 5 9 10 9 6 0 10 -7 10 -16z
m80 0 c0 -8 -4 -12 -10 -9 -5 3 -10 10 -10 16 0 5 5 9 10 9 6 0 10 -7 10 -16z
m-120 -20 c0 -8 -4 -12 -10 -9 -5 3 -10 10 -10 16 0 5 5 9 10 9 6 0 10 -7 10
-16z m80 0 c0 -8 -4 -12 -10 -9 -5 3 -10 10 -10 16 0 5 5 9 10 9 6 0 10 -7 10
-16z m-40 -25 c0 -6 -4 -7 -10 -4 -5 3 -10 11 -10 16 0 6 5 7 10 4 6 -3 10
-11 10 -16z m80 0 c0 -5 -4 -9 -10 -9 -5 0 -10 7 -10 16 0 8 5 12 10 9 6 -3
10 -10 10 -16z m-40 -19 c0 -5 -4 -10 -10 -10 -5 0 -10 5 -10 10 0 6 5 10 10
10 6 0 10 -4 10 -10z m40 -20 c0 -5 -4 -10 -10 -10 -5 0 -10 5 -10 10 0 6 5
10 10 10 6 0 10 -4 10 -10z"/>
<path d="M1297 3245 c-4 -8 -2 -17 3 -20 6 -4 10 3 10 14 0 25 -6 27 -13 6z"/>
</g>
</svg>
